<svg width="313" height="155" viewBox="0 0 313 155" fill="none" xmlns="http://www.w3.org/2000/svg">
<g clip-path="url(#clip0_1_106)">
<path d="M73.2879 39.4055C79.42 39.4055 84.3853 36.1994 84.3853 32.2352C84.3853 29.6132 82.213 27.3266 78.9607 26.0715C78.5635 27.6746 76.3539 29.1161 73.3748 29.2528C73.1637 29.1782 73.0396 28.967 73.2879 28.706C74.4051 27.6124 75.2864 26.3325 75.3361 25.1768V12.7624C77.9428 11.9049 79.8296 9.4444 79.8296 6.54895C79.8296 2.93273 76.9001 0 73.2879 0C69.6756 0 66.7461 2.93273 66.7461 6.54895C66.7461 9.4444 68.6329 11.9049 71.2397 12.7624V25.1892C66.0882 25.8106 62.1904 28.7309 62.1904 32.2352C62.2028 36.1994 67.1681 39.4055 73.2879 39.4055Z" fill="black"/>
<path d="M82.3123 123.871C81.4682 124.504 80.5372 124.741 79.6807 124.517C78.4766 124.206 77.6201 123.075 77.2849 121.597C78.6255 121.062 79.5317 120.056 79.5317 118.888C79.5317 117.173 77.5456 115.768 75.0878 115.768C72.6299 115.768 70.6438 117.16 70.6438 118.888C70.6438 120.118 71.6493 121.174 73.1141 121.684C72.7665 123.125 71.9224 124.219 70.7431 124.517C69.8866 124.728 68.9556 124.504 68.1115 123.871C67.3791 123.324 66.4481 123.535 66.0261 124.343C65.604 125.151 65.8523 126.257 66.5847 126.803C68.1488 127.984 69.9363 128.407 71.5872 127.984C73.1265 127.586 74.3802 126.518 75.2119 125.039C76.0436 126.518 77.2849 127.586 78.8366 127.984C80.4999 128.407 82.275 127.984 83.8391 126.803C84.5715 126.257 84.8197 125.151 84.3977 124.343C83.9756 123.535 83.0447 123.324 82.3123 123.871Z" fill="black"/>
<path d="M59.8193 121.795C63.5694 121.795 66.6094 118.658 66.6094 114.787C66.6094 110.916 63.5694 107.778 59.8193 107.778C56.0693 107.778 53.0293 110.916 53.0293 114.787C53.0293 118.658 56.0693 121.795 59.8193 121.795Z" fill="black"/>
<path d="M50.0625 88.8146C49.8887 88.6282 49.7521 88.4915 49.6404 88.4045C49.6156 88.4542 49.5908 88.5163 49.5535 88.5909C48.1881 91.8467 47.6171 98.756 47.4185 103.714C48.9329 102.173 50.5962 100.769 52.421 99.5141C53.2775 98.7685 54.2954 98.1098 55.4498 97.5134C54.0347 94.6179 52.0114 90.952 50.0625 88.8146Z" fill="black"/>
<path d="M90.418 121.795C94.168 121.795 97.208 118.658 97.208 114.787C97.208 110.916 94.168 107.778 90.418 107.778C86.6679 107.778 83.6279 110.916 83.6279 114.787C83.6279 118.658 86.6679 121.795 90.418 121.795Z" fill="black"/>
<path d="M100.051 102.695C100.038 97.8613 99.7403 91.6603 98.6107 88.5784C98.5859 88.5039 98.5611 88.4417 98.5362 88.392C98.4245 88.479 98.2755 88.5909 98.1018 88.7773C96.0288 90.8525 93.8192 94.4812 92.2551 97.3145C93.5213 97.8861 94.6757 98.5323 95.6812 99.2407C97.2328 100.285 98.6852 101.453 100.051 102.695Z" fill="black"/>
<path d="M131.394 97.5755C130.575 91.8592 128.303 83.906 122.183 78.4506C118.534 75.3066 114.264 73.89 108.392 73.89C107.027 73.89 105.55 73.977 104.011 74.1261C92.7393 75.2072 83.7148 75.7416 76.3786 75.7416C75.6338 75.7416 74.889 75.7416 74.1566 75.7291H74.1442C71.0037 75.7291 67.4783 75.58 63.7419 75.4185L63.2578 75.3936C55.7478 75.0705 48.9702 74.6356 44.2035 74.1509C42.3663 73.9645 40.7402 73.8651 39.2258 73.8651C33.6771 73.8651 29.7669 75.0705 26.1422 77.879C19.4515 83.061 17.3412 92.406 16.6833 97.5134C15.3923 107.529 17.7633 121.149 25.9684 128.991L26.0926 129.102L26.2043 129.227C36.2466 140.771 54.6554 147.942 74.2311 147.942C94.7502 147.942 112.017 141.641 121.575 130.643L121.612 130.594L121.65 130.544C128.924 122.765 133.02 108.896 131.394 97.5755ZM27.0236 85.8694C26.9367 85.9937 24.454 91.4988 23.7713 99.8372C23.4237 104.112 23.8458 108.921 24.7643 114.551C24.9754 115.097 24.7519 115.744 24.2554 115.98C24.1064 116.054 23.9451 116.079 23.7837 116.067C23.4361 116.029 23.1134 115.793 22.9644 115.408C16.2985 98.172 25.0871 85.0865 25.4719 84.5398C25.7946 84.0675 26.4153 83.9681 26.8498 84.3409C27.2718 84.7137 27.3587 85.3848 27.0236 85.8694ZM111.521 133.29C111.111 133.626 110.614 134.023 110.031 134.446C101.006 133.178 89.0153 131.526 88.916 131.464C87.6126 131.277 87.2278 132.868 88.345 133.34C90.629 134.483 97.0343 136.633 104.482 137.801C98.4121 140.846 88.8167 143.903 74.6035 143.766C74.5787 143.766 74.5415 143.766 74.5166 143.766C74.4918 143.766 74.4546 143.766 74.4297 143.766C60.5021 143.903 50.9935 140.958 44.911 137.975C52.8803 136.857 59.8442 134.533 62.2523 133.34C63.3447 132.868 62.9847 131.277 61.6813 131.464C61.582 131.526 48.3867 133.328 39.263 134.62C38.5679 134.123 37.9969 133.663 37.5252 133.278C36.7307 132.619 36.2714 131.613 36.3211 130.569C36.3459 129.997 36.3831 129.438 36.4204 128.866C44.9855 128.431 57.796 127.723 57.8953 127.76C59.1242 127.698 58.9132 126.232 58.1063 125.946C55.214 125.138 46.0034 124.02 36.8548 125.188C37.8231 119.236 40.045 113.457 43.4711 108.486C43.4215 108.312 43.3966 108.126 43.3966 107.94C43.3966 107.331 43.3966 93.0397 45.9413 86.9879C46.773 85.012 48.0144 84.4031 48.9081 84.2415C49.8515 84.08 51.3163 84.254 52.9548 86.0558C55.2885 88.6282 57.585 92.8285 59.1366 95.9849C67.4783 93.2758 79.6061 93.2386 88.4815 95.9103C90.1821 92.7912 92.7765 88.4418 95.3336 85.8819C97.0467 84.167 98.5238 84.0551 99.4548 84.2664C100.336 84.4652 101.553 85.1238 102.285 87.1494C104.172 92.2817 104.035 103.031 103.911 106.846C108.119 112.103 110.912 118.44 112.092 124.989C103.502 124.144 95.2095 125.176 92.4786 125.934C91.6717 126.219 91.4607 127.698 92.6896 127.748C92.7889 127.711 104.122 128.344 112.588 128.779C112.638 129.376 112.675 129.972 112.7 130.556C112.774 131.637 112.315 132.632 111.521 133.29ZM122.283 90.6414H121.749C119.167 90.6414 117.069 92.7415 117.069 95.3263V95.7364C117.069 96.0595 116.809 96.3328 116.473 96.3328C116.151 96.3328 115.878 96.0719 115.878 95.7364V95.3263C115.878 92.7415 113.78 90.6414 111.198 90.6414H110.664C110.341 90.6414 110.068 90.3804 110.068 90.0449C110.068 89.7218 110.329 89.4484 110.664 89.4484H111.198C113.78 89.4484 115.878 87.3482 115.878 84.7635V84.3534C115.878 84.0303 116.138 83.7569 116.473 83.7569C116.796 83.7569 117.069 84.0178 117.069 84.3534V84.7635C117.069 87.3482 119.167 89.4484 121.749 89.4484H122.283C122.606 89.4484 122.879 89.7093 122.879 90.0449C122.866 90.3804 122.606 90.6414 122.283 90.6414Z" fill="black"/>
<path d="M137.353 80.0164C137.328 80.0164 137.29 80.004 137.266 80.004C131.568 58.2695 113.854 41.0583 91.2125 35.0685C90.2691 34.82 89.2885 35.3544 88.9906 36.3112C87.4761 41.0459 81.133 44.5875 73.5485 44.5875C65.964 44.5875 59.6208 41.0459 58.1064 36.3112C57.7961 35.3544 56.8154 34.82 55.8844 35.0685C35.7377 40.3872 19.526 54.5787 12.1526 72.9207C11.4202 74.9214 10.6506 77.2577 9.98025 79.83C0.571009 79.8922 0 90.4177 0 95.1275C0 100.471 0.831688 109.294 8.11826 110.611H9.99266C11.3457 119.459 15.0076 127.673 20.5315 133.663C31.8772 146.836 52.3715 155.012 74.0202 155.012C96.6868 155.012 115.927 147.768 126.801 135.142C132.499 128.966 136.484 119.931 137.986 110.611H138.184C138.197 110.512 138.209 110.412 138.221 110.326C140.195 110.015 141.598 109.878 143.41 108.449C146.303 106.187 147.482 100.894 147.482 95.1399C147.507 90.4177 147.507 79.8922 137.353 80.0164ZM124.356 132.744L124.319 132.793C114.09 144.698 95.7558 151.52 74.0202 151.52C53.2777 151.52 33.7392 143.779 23.0142 131.314L22.9769 131.265C15.2807 122.926 11.5071 109.828 13.1332 97.0785C14.449 86.7891 19.7867 70.2738 39.2879 70.2738C40.5789 70.2738 41.9319 70.3483 43.3595 70.4975H43.3967C50.0626 71.1685 56.021 71.7029 74.0202 72.1627C81.915 72.3615 93.3724 71.5413 104.693 70.4975C128.924 67.95 133.951 89.933 134.92 96.7305C136.67 109.07 132.238 124.219 124.356 132.744Z" fill="black"/>
<path d="M191.536 57.2878H190.903L185.305 43.5312H177.733V68.0246H182.76V49.2227L188.42 63.0538H193.646L199.344 49.0736V68.0246H204.781V43.5312H197.072L191.536 57.2878Z" fill="black"/>
<path d="M215.233 43.5312L207.152 68.0246H212.651L214.588 61.9478H224.804L226.79 68.0246H232.488L224.109 43.5312H215.233ZM216.052 57.3872L219.044 48.0298H220.273L223.339 57.3872H216.052Z" fill="black"/>
<path d="M253.23 56.5918C254.049 55.3989 254.459 53.8952 254.459 52.0809V51.5465C254.459 49.7074 254.062 48.1913 253.255 46.9859C252.448 45.7805 251.294 44.8609 249.804 44.252C248.302 43.6431 246.539 43.3324 244.504 43.3324H240.382H238.905H234.883V68.0245H240.382V60.1708H244.392L249.742 68.0245H256.11L249.854 59.2512C251.294 58.6547 252.436 57.7724 253.23 56.5918ZM240.382 47.9925H244.938C245.745 47.9925 246.44 48.154 247.036 48.4771C247.632 48.8002 248.091 49.26 248.414 49.8565C248.736 50.453 248.898 51.1365 248.898 51.9193C248.898 52.7022 248.736 53.3857 248.414 53.9822C248.091 54.5787 247.632 55.0385 247.036 55.3616C246.44 55.6847 245.745 55.8462 244.938 55.8462H240.382V47.9925Z" fill="black"/>
<path d="M275.599 56.9647C274.829 55.9084 273.762 55.0634 272.396 54.442C271.031 53.8331 269.454 53.4479 267.667 53.2863L265.792 53.1124C264.675 53.0254 263.868 52.7271 263.384 52.2052C262.9 51.6833 262.652 51.0868 262.652 50.3909C262.652 49.8565 262.788 49.3594 263.049 48.8996C263.322 48.4399 263.719 48.0795 264.278 47.8061C264.837 47.5327 265.507 47.4084 266.301 47.4084C267.145 47.4084 267.865 47.57 268.424 47.8806C268.995 48.1913 269.417 48.6014 269.715 49.1109C270.001 49.6204 270.15 50.1672 270.15 50.7761H275.512C275.512 49.1606 275.14 47.7564 274.407 46.5634C273.675 45.3704 272.62 44.4384 271.242 43.7798C269.864 43.1212 268.225 42.7856 266.301 42.7856C264.464 42.7856 262.888 43.0963 261.547 43.7052C260.206 44.3141 259.164 45.1965 258.419 46.3397C257.674 47.483 257.302 48.8375 257.302 50.4033C257.302 52.578 258.022 54.3178 259.486 55.635C260.939 56.9522 262.888 57.7103 265.321 57.9215L267.158 58.0831C268.66 58.2198 269.74 58.518 270.41 58.9778C271.08 59.4376 271.416 60.059 271.416 60.8418C271.416 61.4632 271.242 62.0224 270.882 62.507C270.522 62.9917 270.001 63.3645 269.305 63.6255C268.61 63.8989 267.754 64.0231 266.723 64.0231C265.581 64.0231 264.65 63.8616 263.943 63.5385C263.223 63.2154 262.702 62.7804 262.354 62.2461C262.006 61.7117 261.833 61.1277 261.833 60.5063H256.507C256.507 62.097 256.892 63.5012 257.687 64.719C258.469 65.9369 259.623 66.8937 261.137 67.6021C262.652 68.3104 264.526 68.6583 266.736 68.6583C268.809 68.6583 270.596 68.3352 272.098 67.689C273.6 67.0428 274.755 66.1233 275.562 64.9551C276.381 63.787 276.791 62.4076 276.791 60.8418C276.753 59.3133 276.369 58.021 275.599 56.9647Z" fill="black"/>
<path d="M195.397 94.8914C195.149 96.3453 194.441 97.4886 193.274 98.3087C192.107 99.1289 190.667 99.5514 188.967 99.5514C187.85 99.5514 186.857 99.365 185.988 98.9922C185.119 98.6194 184.386 98.0851 183.791 97.3767C183.195 96.6684 182.748 95.8482 182.45 94.8914C182.152 93.9469 182.003 92.8906 182.003 91.7598C182.003 90.5917 182.152 89.5354 182.45 88.591C182.748 87.6465 183.182 86.8139 183.753 86.1304C184.324 85.4345 185.032 84.9002 185.876 84.515C186.72 84.1297 187.701 83.9433 188.793 83.9433C189.885 83.9433 190.878 84.1297 191.76 84.515C192.641 84.9002 193.361 85.4345 193.92 86.1304C194.478 86.8263 194.838 87.6589 194.987 88.6531H200.524C200.35 86.6896 199.742 84.9623 198.736 83.5084C197.718 82.042 196.365 80.8987 194.665 80.0661C192.964 79.2335 191.015 78.8235 188.793 78.8235C186.67 78.8235 184.833 79.1838 183.282 79.917C181.73 80.6378 180.439 81.6071 179.433 82.8249C178.416 84.0303 177.658 85.3848 177.174 86.8636C176.678 88.3548 176.442 89.8585 176.442 91.3746V92.1078C176.442 93.4996 176.678 94.9162 177.162 96.3826C177.646 97.849 178.391 99.2159 179.396 100.471C180.402 101.739 181.693 102.758 183.282 103.528C184.87 104.298 186.77 104.684 188.979 104.684C191.325 104.684 193.349 104.236 195.062 103.354C196.775 102.472 198.128 101.291 199.121 99.8C200.114 98.3087 200.71 96.6684 200.908 94.8789H195.397V94.8914Z" fill="black"/>
<path d="M208.865 79.5691L200.784 104.062H206.283L208.22 97.9857H218.436L220.422 104.062H226.12L217.741 79.5691H208.865ZM209.672 93.425L212.664 84.0676H213.893L216.959 93.425H209.672Z" fill="black"/>
<path d="M243.188 84.3659V79.5691H223.91V84.3659H230.787V104.062H236.286V84.3659H243.188Z" fill="black"/>
<path d="M263.521 93.0025C262.751 91.9462 261.684 91.1012 260.318 90.4798C258.953 89.8709 257.376 89.4857 255.589 89.3241L253.714 89.1502C252.597 89.0632 251.79 88.7649 251.306 88.243C250.822 87.7211 250.574 87.1246 250.574 86.4287C250.574 85.8943 250.71 85.3973 250.971 84.9375C251.244 84.4777 251.641 84.1173 252.2 83.8439C252.758 83.5705 253.429 83.4462 254.223 83.4462C255.067 83.4462 255.787 83.6078 256.346 83.9185C256.917 84.2291 257.351 84.6392 257.637 85.1487C257.922 85.6582 258.071 86.205 258.071 86.8139H263.434C263.434 85.1984 263.061 83.7942 262.329 82.6012C261.597 81.4082 260.542 80.4762 259.164 79.8176C257.786 79.159 256.147 78.8235 254.223 78.8235C252.386 78.8235 250.81 79.1341 249.469 79.743C248.128 80.3644 247.086 81.2343 246.341 82.3775C245.596 83.5208 245.224 84.8753 245.224 86.4411C245.224 88.6158 245.944 90.3556 247.408 91.6728C248.861 92.9901 250.81 93.7481 253.243 93.9594L255.08 94.1209C256.582 94.2576 257.662 94.5558 258.332 95.0156C259.002 95.4754 259.337 96.0968 259.337 96.8797C259.337 97.501 259.164 98.0602 258.804 98.5449C258.444 99.0295 257.922 99.4023 257.227 99.6633C256.532 99.9367 255.676 100.061 254.645 100.061C253.503 100.061 252.572 99.8994 251.865 99.5763C251.145 99.2532 250.623 98.8182 250.276 98.2839C249.928 97.7495 249.754 97.1655 249.754 96.5441H244.429C244.429 98.1348 244.814 99.539 245.608 100.757C246.39 101.975 247.545 102.932 249.059 103.64C250.574 104.348 252.448 104.696 254.658 104.696C256.731 104.696 258.518 104.373 260.02 103.727C261.522 103.081 262.677 102.161 263.484 100.993C264.303 99.8248 264.712 98.4454 264.712 96.8797C264.675 95.3512 264.29 94.0588 263.521 93.0025Z" fill="black"/>
<path d="M188.222 135.627H187.068L181.345 115.607H175.685L183.12 140.1H192.07L199.009 115.607H193.51L188.222 135.627Z" fill="black"/>
<path d="M222.507 118.85C221.415 117.645 220.05 116.676 218.423 115.942C216.797 115.222 214.91 114.849 212.763 114.849C210.615 114.849 208.729 115.209 207.102 115.942C205.476 116.663 204.111 117.632 203.019 118.85C201.926 120.056 201.107 121.41 200.561 122.889C200.015 124.38 199.741 125.884 199.741 127.4V128.133C199.741 129.5 200.002 130.917 200.523 132.396C201.045 133.874 201.852 135.241 202.919 136.509C203.987 137.776 205.352 138.795 206.991 139.566C208.629 140.336 210.566 140.722 212.775 140.722C214.985 140.722 216.909 140.336 218.56 139.566C220.198 138.795 221.564 137.776 222.631 136.509C223.699 135.241 224.506 133.874 225.04 132.396C225.573 130.917 225.846 129.5 225.846 128.133V127.4C225.846 125.884 225.561 124.38 225.015 122.889C224.431 121.41 223.6 120.068 222.507 118.85ZM219.764 130.83C219.429 131.774 218.932 132.594 218.274 133.315C217.617 134.036 216.822 134.595 215.891 134.993C214.96 135.39 213.917 135.602 212.763 135.602C211.596 135.602 210.566 135.403 209.647 134.993C208.729 134.595 207.947 134.036 207.289 133.315C206.631 132.594 206.134 131.774 205.799 130.83C205.464 129.885 205.303 128.879 205.303 127.81C205.303 126.667 205.464 125.623 205.799 124.679C206.134 123.734 206.631 122.901 207.289 122.193C207.947 121.485 208.741 120.95 209.647 120.565C210.566 120.18 211.608 119.994 212.763 119.994C213.93 119.994 214.96 120.18 215.879 120.565C216.797 120.95 217.579 121.485 218.237 122.193C218.895 122.901 219.404 123.722 219.739 124.679C220.087 125.623 220.261 126.679 220.261 127.81C220.261 128.891 220.099 129.898 219.764 130.83Z" fill="black"/>
<path d="M246.974 115.607H241.649L237.143 126.679H236.075L231.085 115.607H225.462L232.599 130.805H233.803V140.1H239.203V130.805H240.407L246.974 115.607Z" fill="black"/>
<path d="M252.473 115.607L244.392 140.1H249.891L251.827 134.024H262.043L264.03 140.1H269.727L261.348 115.607H252.473ZM253.28 129.463L256.271 120.105H257.5L260.566 129.463H253.28Z" fill="black"/>
<path d="M281.694 131.302H288.099V133.34C287.64 133.899 287.069 134.396 286.361 134.794C285.244 135.415 283.928 135.738 282.401 135.738C281.259 135.738 280.229 135.552 279.298 135.167C278.367 134.782 277.597 134.247 276.964 133.539C276.344 132.831 275.86 131.998 275.537 131.016C275.214 130.034 275.053 128.966 275.053 127.773C275.053 126.63 275.202 125.586 275.512 124.641C275.81 123.697 276.257 122.864 276.853 122.181C277.448 121.485 278.156 120.95 279 120.565C279.844 120.18 280.788 119.994 281.868 119.994C282.985 119.994 283.99 120.18 284.872 120.565C285.753 120.95 286.485 121.472 287.056 122.143C287.627 122.814 287.975 123.597 288.111 124.492H293.611C293.449 122.591 292.866 120.913 291.835 119.472C290.805 118.03 289.44 116.899 287.751 116.079C286.063 115.259 284.102 114.849 281.892 114.849C279.857 114.849 278.069 115.209 276.517 115.918C274.966 116.638 273.675 117.595 272.632 118.801C271.589 120.006 270.82 121.348 270.298 122.827C269.789 124.306 269.529 125.809 269.529 127.35V128.083C269.529 129.587 269.789 131.078 270.298 132.582C270.807 134.086 271.602 135.44 272.657 136.67C273.712 137.901 275.065 138.882 276.691 139.603C278.317 140.324 280.229 140.697 282.426 140.697C284.859 140.697 287.007 140.249 288.844 139.342C290.693 138.435 292.133 137.13 293.188 135.428V131.265H295.199V127.301H281.731V131.302H281.694Z" fill="black"/>
<path d="M302.982 135.527V129.923H312.23V125.362H302.982V120.168H312.764V115.607H302.982H302.312H297.62V140.1H302.312H302.982H313V135.527H302.982Z" fill="black"/>
</g>
<defs>
<clipPath id="clip0_1_106">
<rect width="313" height="155" fill="white"/>
</clipPath>
</defs>
</svg>
