<?xml version="1.0" encoding="UTF-8" standalone="no" ?>
<!DOCTYPE svg PUBLIC "-//W3C//DTD SVG 1.1//EN" "http://www.w3.org/Graphics/SVG/1.1/DTD/svg11.dtd">
<svg xmlns="http://www.w3.org/2000/svg" xmlns:xlink="http://www.w3.org/1999/xlink" version="1.1" width="640" height="480" viewBox="0 0 640 480" xml:space="preserve">
<desc>Created with Fabric.js 3.6.6</desc>
<defs>
</defs>
<g transform="matrix(3 0 0 3 318.62 66.54)" clip-path="url(#CLIPPATH_5)"  >
<clipPath id="CLIPPATH_5" >
	<rect transform="matrix(1 0 0 1 83.21 57.8)" x="-156.5" y="-77.5" rx="0" ry="0" width="313" height="155" />
</clipPath>
<path style="stroke: none; stroke-width: 1; stroke-dasharray: none; stroke-linecap: butt; stroke-dashoffset: 0; stroke-linejoin: miter; stroke-miterlimit: 4; fill: rgb(0,0,0); fill-rule: nonzero; opacity: 1;"  transform=" translate(-73.29, -19.7)" d="M 73.2879 39.4055 C 79.42 39.4055 84.3853 36.1994 84.3853 32.2352 C 84.3853 29.6132 82.213 27.3266 78.9607 26.0715 C 78.5635 27.6746 76.3539 29.1161 73.3748 29.2528 C 73.1637 29.1782 73.0396 28.967 73.2879 28.706 C 74.4051 27.6124 75.2864 26.3325 75.3361 25.1768 V 12.7624 C 77.9428 11.9049 79.8296 9.4444 79.8296 6.54895 C 79.8296 2.93273 76.9001 0 73.2879 0 C 69.6756 0 66.7461 2.93273 66.7461 6.54895 C 66.7461 9.4444 68.6329 11.9049 71.2397 12.7624 V 25.1892 C 66.0882 25.8106 62.1904 28.7309 62.1904 32.2352 C 62.2028 36.1994 67.1681 39.4055 73.2879 39.4055 Z" stroke-linecap="round" />
</g>
<g transform="matrix(3 0 0 3 324.39 372.97)" clip-path="url(#CLIPPATH_6)"  >
<clipPath id="CLIPPATH_6" >
	<rect transform="matrix(1 0 0 1 81.29 -44.46)" x="-156.5" y="-77.5" rx="0" ry="0" width="313" height="155" />
</clipPath>
<path style="stroke: none; stroke-width: 1; stroke-dasharray: none; stroke-linecap: butt; stroke-dashoffset: 0; stroke-linejoin: miter; stroke-miterlimit: 4; fill: rgb(0,0,0); fill-rule: nonzero; opacity: 1;"  transform=" translate(-75.21, -121.96)" d="M 82.3123 123.871 C 81.4682 124.504 80.5372 124.741 79.6807 124.517 C 78.4766 124.206 77.6201 123.075 77.2849 121.597 C 78.6255 121.062 79.5317 120.056 79.5317 118.888 C 79.5317 117.173 77.5456 115.768 75.0878 115.768 C 72.6299 115.768 70.6438 117.16 70.6438 118.888 C 70.6438 120.118 71.6493 121.174 73.1141 121.684 C 72.7665 123.125 71.9224 124.219 70.7431 124.517 C 69.8866 124.728 68.9556 124.504 68.1115 123.871 C 67.3791 123.324 66.4481 123.535 66.0261 124.343 C 65.604 125.151 65.8523 126.257 66.5847 126.803 C 68.1488 127.984 69.9363 128.407 71.5872 127.984 C 73.1265 127.586 74.3802 126.518 75.2119 125.039 C 76.0436 126.518 77.2849 127.586 78.8366 127.984 C 80.4999 128.407 82.275 127.984 83.8391 126.803 C 84.5715 126.257 84.8197 125.151 84.3977 124.343 C 83.9756 123.535 83.0447 123.324 82.3123 123.871 Z" stroke-linecap="round" />
</g>
<g transform="matrix(3 0 0 3 278.26 351.49)" clip-path="url(#CLIPPATH_7)"  >
<clipPath id="CLIPPATH_7" >
	<rect transform="matrix(1 0 0 1 96.68 -37.29)" x="-156.5" y="-77.5" rx="0" ry="0" width="313" height="155" />
</clipPath>
<path style="stroke: none; stroke-width: 1; stroke-dasharray: none; stroke-linecap: butt; stroke-dashoffset: 0; stroke-linejoin: miter; stroke-miterlimit: 4; fill: rgb(0,0,0); fill-rule: nonzero; opacity: 1;"  transform=" translate(-59.82, -114.79)" d="M 59.8193 121.795 C 63.5694 121.795 66.6094 118.658 66.6094 114.787 C 66.6094 110.916 63.5694 107.778 59.8193 107.778 C 56.0693 107.778 53.0293 110.916 53.0293 114.787 C 53.0293 118.658 56.0693 121.795 59.8193 121.795 Z" stroke-linecap="round" />
</g>
<g transform="matrix(3 0 0 3 253.14 295.35)" clip-path="url(#CLIPPATH_8)"  >
<clipPath id="CLIPPATH_8" >
	<rect transform="matrix(1 0 0 1 105.07 -18.56)" x="-156.5" y="-77.5" rx="0" ry="0" width="313" height="155" />
</clipPath>
<path style="stroke: none; stroke-width: 1; stroke-dasharray: none; stroke-linecap: butt; stroke-dashoffset: 0; stroke-linejoin: miter; stroke-miterlimit: 4; fill: rgb(0,0,0); fill-rule: nonzero; opacity: 1;"  transform=" translate(-51.43, -96.06)" d="M 50.0625 88.8146 C 49.8887 88.6282 49.7521 88.4915 49.6404 88.4045 C 49.6156 88.4542 49.5908 88.5163 49.5535 88.5909 C 48.1881 91.8467 47.6171 98.756 47.4185 103.714 C 48.9329 102.173 50.5962 100.769 52.421 99.5141 C 53.2775 98.7685 54.2954 98.1098 55.4498 97.5134 C 54.0347 94.6179 52.0114 90.952 50.0625 88.8146 Z" stroke-linecap="round" />
</g>
<g transform="matrix(3 0 0 3 369.96 351.49)" clip-path="url(#CLIPPATH_9)"  >
<clipPath id="CLIPPATH_9" >
	<rect transform="matrix(1 0 0 1 66.08 -37.29)" x="-156.5" y="-77.5" rx="0" ry="0" width="313" height="155" />
</clipPath>
<path style="stroke: none; stroke-width: 1; stroke-dasharray: none; stroke-linecap: butt; stroke-dashoffset: 0; stroke-linejoin: miter; stroke-miterlimit: 4; fill: rgb(0,0,0); fill-rule: nonzero; opacity: 1;"  transform=" translate(-90.42, -114.79)" d="M 90.418 121.795 C 94.168 121.795 97.208 118.658 97.208 114.787 C 97.208 110.916 94.168 107.778 90.418 107.778 C 86.6679 107.778 83.6279 110.916 83.6279 114.787 C 83.6279 118.658 86.6679 121.795 90.418 121.795 Z" stroke-linecap="round" />
</g>
<g transform="matrix(3 0 0 3 387.16 293.81)" clip-path="url(#CLIPPATH_10)"  >
<clipPath id="CLIPPATH_10" >
	<rect transform="matrix(1 0 0 1 60.35 -18.04)" x="-156.5" y="-77.5" rx="0" ry="0" width="313" height="155" />
</clipPath>
<path style="stroke: none; stroke-width: 1; stroke-dasharray: none; stroke-linecap: butt; stroke-dashoffset: 0; stroke-linejoin: miter; stroke-miterlimit: 4; fill: rgb(0,0,0); fill-rule: nonzero; opacity: 1;"  transform=" translate(-96.15, -95.54)" d="M 100.051 102.695 C 100.038 97.8613 99.7403 91.6603 98.6107 88.5784 C 98.5859 88.5039 98.5611 88.4417 98.5362 88.392 C 98.4245 88.479 98.2755 88.5909 98.1018 88.7773 C 96.0288 90.8525 93.8192 94.4812 92.2551 97.3145 C 93.5213 97.8861 94.6757 98.5323 95.6812 99.2407 C 97.2328 100.285 98.6852 101.453 100.051 102.695 Z" stroke-linecap="round" />
</g>
<g transform="matrix(3 0 0 3 320.9 339.86)" clip-path="url(#CLIPPATH_11)"  >
<clipPath id="CLIPPATH_11" >
	<rect transform="matrix(1 0 0 1 82.45 -33.4)" x="-156.5" y="-77.5" rx="0" ry="0" width="313" height="155" />
</clipPath>
<path style="stroke: none; stroke-width: 1; stroke-dasharray: none; stroke-linecap: butt; stroke-dashoffset: 0; stroke-linejoin: miter; stroke-miterlimit: 4; fill: rgb(0,0,0); fill-rule: nonzero; opacity: 1;"  transform=" translate(-74.05, -110.9)" d="M 131.394 97.5755 C 130.575 91.8592 128.303 83.906 122.183 78.4506 C 118.534 75.3066 114.264 73.89 108.392 73.89 C 107.027 73.89 105.55 73.977 104.011 74.1261 C 92.7393 75.2072 83.7148 75.7416 76.3786 75.7416 C 75.6338 75.7416 74.889 75.7416 74.1566 75.7291 H 74.1442 C 71.0037 75.7291 67.4783 75.58 63.7419 75.4185 L 63.2578 75.3936 C 55.7478 75.0705 48.9702 74.6356 44.2035 74.1509 C 42.3663 73.9645 40.7402 73.8651 39.2258 73.8651 C 33.6771 73.8651 29.7669 75.0705 26.1422 77.879 C 19.4515 83.061 17.3412 92.406 16.6833 97.5134 C 15.3923 107.529 17.7633 121.149 25.9684 128.991 L 26.0926 129.102 L 26.2043 129.227 C 36.2466 140.771 54.6554 147.942 74.2311 147.942 C 94.7502 147.942 112.017 141.641 121.575 130.643 L 121.612 130.594 L 121.65 130.544 C 128.924 122.765 133.02 108.896 131.394 97.5755 Z M 27.0236 85.8694 C 26.9367 85.9937 24.454 91.4988 23.7713 99.8372 C 23.4237 104.112 23.8458 108.921 24.7643 114.551 C 24.9754 115.097 24.7519 115.744 24.2554 115.98 C 24.1064 116.054 23.9451 116.079 23.7837 116.067 C 23.4361 116.029 23.1134 115.793 22.9644 115.408 C 16.2985 98.172 25.0871 85.0865 25.4719 84.5398 C 25.7946 84.0675 26.4153 83.9681 26.8498 84.3409 C 27.2718 84.7137 27.3587 85.3848 27.0236 85.8694 Z M 111.521 133.29 C 111.111 133.626 110.614 134.023 110.031 134.446 C 101.006 133.178 89.0153 131.526 88.916 131.464 C 87.6126 131.277 87.2278 132.868 88.345 133.34 C 90.629 134.483 97.0343 136.633 104.482 137.801 C 98.4121 140.846 88.8167 143.903 74.6035 143.766 C 74.5787 143.766 74.5415 143.766 74.5166 143.766 C 74.4918 143.766 74.4546 143.766 74.4297 143.766 C 60.5021 143.903 50.9935 140.958 44.911 137.975 C 52.8803 136.857 59.8442 134.533 62.2523 133.34 C 63.3447 132.868 62.9847 131.277 61.6813 131.464 C 61.582 131.526 48.3867 133.328 39.263 134.62 C 38.5679 134.123 37.9969 133.663 37.5252 133.278 C 36.7307 132.619 36.2714 131.613 36.3211 130.569 C 36.3459 129.997 36.3831 129.438 36.4204 128.866 C 44.9855 128.431 57.796 127.723 57.8953 127.76 C 59.1242 127.698 58.9132 126.232 58.1063 125.946 C 55.214 125.138 46.0034 124.02 36.8548 125.188 C 37.8231 119.236 40.045 113.457 43.4711 108.486 C 43.4215 108.312 43.3966 108.126 43.3966 107.94 C 43.3966 107.331 43.3966 93.0397 45.9413 86.9879 C 46.773 85.012 48.0144 84.4031 48.9081 84.2415 C 49.8515 84.08 51.3163 84.254 52.9548 86.0558 C 55.2885 88.6282 57.585 92.8285 59.1366 95.9849 C 67.4783 93.2758 79.6061 93.2386 88.4815 95.9103 C 90.1821 92.7912 92.7765 88.4418 95.3336 85.8819 C 97.0467 84.167 98.5238 84.0551 99.4548 84.2664 C 100.336 84.4652 101.553 85.1238 102.285 87.1494 C 104.172 92.2817 104.035 103.031 103.911 106.846 C 108.119 112.103 110.912 118.44 112.092 124.989 C 103.502 124.144 95.2095 125.176 92.4786 125.934 C 91.6717 126.219 91.4607 127.698 92.6896 127.748 C 92.7889 127.711 104.122 128.344 112.588 128.779 C 112.638 129.376 112.675 129.972 112.7 130.556 C 112.774 131.637 112.315 132.632 111.521 133.29 Z M 122.283 90.6414 H 121.749 C 119.167 90.6414 117.069 92.7415 117.069 95.3263 V 95.7364 C 117.069 96.0595 116.809 96.3328 116.473 96.3328 C 116.151 96.3328 115.878 96.0719 115.878 95.7364 V 95.3263 C 115.878 92.7415 113.78 90.6414 111.198 90.6414 H 110.664 C 110.341 90.6414 110.068 90.3804 110.068 90.0449 C 110.068 89.7218 110.329 89.4484 110.664 89.4484 H 111.198 C 113.78 89.4484 115.878 87.3482 115.878 84.7635 V 84.3534 C 115.878 84.0303 116.138 83.7569 116.473 83.7569 C 116.796 83.7569 117.069 84.0178 117.069 84.3534 V 84.7635 C 117.069 87.3482 119.167 89.4484 121.749 89.4484 H 122.283 C 122.606 89.4484 122.879 89.7093 122.879 90.0449 C 122.866 90.3804 122.606 90.6414 122.283 90.6414 Z" stroke-linecap="round" />
</g>
<g transform="matrix(3 0 0 3 319.98 292.22)" clip-path="url(#CLIPPATH_12)"  >
<clipPath id="CLIPPATH_12" >
	<rect transform="matrix(1 0 0 1 82.76 -17.51)" x="-156.5" y="-77.5" rx="0" ry="0" width="313" height="155" />
</clipPath>
<path style="stroke: none; stroke-width: 1; stroke-dasharray: none; stroke-linecap: butt; stroke-dashoffset: 0; stroke-linejoin: miter; stroke-miterlimit: 4; fill: rgb(0,0,0); fill-rule: nonzero; opacity: 1;"  transform=" translate(-73.74, -95.01)" d="M 137.353 80.0164 C 137.328 80.0164 137.29 80.004 137.266 80.004 C 131.568 58.2695 113.854 41.0583 91.2125 35.0685 C 90.2691 34.82 89.2885 35.3544 88.9906 36.3112 C 87.4761 41.0459 81.133 44.5875 73.5485 44.5875 C 65.964 44.5875 59.6208 41.0459 58.1064 36.3112 C 57.7961 35.3544 56.8154 34.82 55.8844 35.0685 C 35.7377 40.3872 19.526 54.5787 12.1526 72.9207 C 11.4202 74.9214 10.6506 77.2577 9.98025 79.83 C 0.571009 79.8922 0 90.4177 0 95.1275 C 0 100.471 0.831688 109.294 8.11826 110.611 H 9.99266 C 11.3457 119.459 15.0076 127.673 20.5315 133.663 C 31.8772 146.836 52.3715 155.012 74.0202 155.012 C 96.6868 155.012 115.927 147.768 126.801 135.142 C 132.499 128.966 136.484 119.931 137.986 110.611 H 138.184 C 138.197 110.512 138.209 110.412 138.221 110.326 C 140.195 110.015 141.598 109.878 143.41 108.449 C 146.303 106.187 147.482 100.894 147.482 95.1399 C 147.507 90.4177 147.507 79.8922 137.353 80.0164 Z M 124.356 132.744 L 124.319 132.793 C 114.09 144.698 95.7558 151.52 74.0202 151.52 C 53.2777 151.52 33.7392 143.779 23.0142 131.314 L 22.9769 131.265 C 15.2807 122.926 11.5071 109.828 13.1332 97.0785 C 14.449 86.7891 19.7867 70.2738 39.2879 70.2738 C 40.5789 70.2738 41.9319 70.3483 43.3595 70.4975 H 43.3967 C 50.0626 71.1685 56.021 71.7029 74.0202 72.1627 C 81.915 72.3615 93.3724 71.5413 104.693 70.4975 C 128.924 67.95 133.951 89.933 134.92 96.7305 C 136.67 109.07 132.238 124.219 124.356 132.744 Z" stroke-linecap="round" />
</g>
</svg>